<svg width="18" height="16" viewBox="0 0 18 16" fill="none" xmlns="http://www.w3.org/2000/svg">
<path d="M13.1162 0.500061C14.2337 0.500061 15.3087 0.941728 16.0995 1.73423C16.8912 2.52506 17.3337 3.59173 17.3337 4.70839V11.2917C17.3337 13.6167 15.442 15.5001 13.1162 15.5001H4.88366C2.55783 15.5001 0.666992 13.6167 0.666992 11.2917V4.70839C0.666992 2.38339 2.54949 0.500061 4.88366 0.500061H13.1162ZM14.0587 4.83339C13.8837 4.82423 13.717 4.88339 13.5912 5.00006L9.83366 8.00006C9.35033 8.40089 8.65783 8.40089 8.16699 8.00006L4.41699 5.00006C4.15783 4.80839 3.79949 4.83339 3.58366 5.05839C3.35866 5.28339 3.33366 5.64173 3.52449 5.89173L3.63366 6.00006L7.42533 8.95839C7.89199 9.32506 8.45783 9.52506 9.05033 9.52506C9.64116 9.52506 10.217 9.32506 10.6828 8.95839L14.442 5.95006L14.5087 5.88339C14.7078 5.64173 14.7078 5.29173 14.4995 5.05006C14.3837 4.92589 14.2245 4.85006 14.0587 4.83339Z" fill="#F4D35E"/>
</svg>
