<svg width="314" height="136" viewBox="0 0 314 136" fill="none" xmlns="http://www.w3.org/2000/svg">
<g clip-path="url(#clip0_131_5947)">
<path d="M246.48 12.1453C243.331 12.1453 240.796 13.6085 235.727 16.5351L130.324 77.3899C130.222 77.4486 130.121 77.5068 130.022 77.5644L128.768 73.8049L123.491 72.0977L122.715 73.3393V83.4275L122.729 83.4188C122.723 83.4782 122.72 83.5379 122.72 83.598C122.72 85.4163 125.255 86.8795 130.324 89.8061L202.512 131.484C207.581 134.411 210.116 135.874 213.265 135.874C216.414 135.874 218.949 134.411 224.018 131.484L329.421 70.6293C334.425 67.7404 336.959 66.2773 337.023 64.4911L337.05 64.4928V54.2494L332.86 55.491L327.935 57.3546L257.233 16.5351C252.164 13.6085 249.63 12.1453 246.48 12.1453Z" fill="#E44449"/>
<rect width="108.188" height="146.542" rx="6.20811" transform="matrix(0.866025 0.5 -0.866026 0.5 246.48 0)" fill="#F15156"/>
<g clip-path="url(#clip1_131_5947)">
<path d="M194.597 84.3058C190.88 82.4472 186.774 79.3015 187.284 78.9227C187.769 78.5656 193.242 79.204 195.648 79.5057C194.796 80.2768 194.574 81.2365 194.444 82.1253C194.351 82.8621 194.389 83.5942 194.595 84.3049L194.597 84.3058Z" fill="#FA9700"/>
<path d="M194.445 82.1262C194.575 81.2374 194.796 80.2769 195.65 79.5066C196.338 79.593 196.777 79.6511 196.777 79.6511L196.894 85.2879C196.18 85.0481 195.397 84.7064 194.598 84.3067C194.393 83.5951 194.353 82.8638 194.446 82.1271L194.445 82.1262Z" fill="#F27006"/>
<path d="M207.347 76.9442C208.039 77.4058 208.631 77.8577 209.047 78.2697L199.283 78.2023C199.283 78.2023 199.183 77.9487 199.033 77.5515C200.369 77.0593 202.03 76.932 203.57 76.8559C204.847 76.8022 206.115 76.8242 207.346 76.9434L207.347 76.9442Z" fill="#F27006"/>
<path d="M198.023 72.7225C198.679 72.4278 204.126 74.7973 207.347 76.9442C206.116 76.825 204.848 76.803 203.572 76.8567C202.031 76.9328 200.367 77.0601 199.034 77.5523C198.513 76.1619 197.405 73.002 198.025 72.7233L198.023 72.7225Z" fill="#FA9700"/>
<path d="M221.632 89.9605C220.379 91.9958 217.047 93.1835 213.719 94.0674L207.004 89.6942L215.786 83.8664C217.171 84.1013 218.567 84.3577 219.965 84.6315C221.703 86.2317 222.751 88.1 221.631 89.9613L221.632 89.9605Z" fill="#F27006"/>
<path d="M221.632 89.9604C222.751 88.1 221.703 86.2316 219.966 84.6306C236.517 87.8696 253.321 93.4862 253.321 93.4862L231.856 105.879L213.72 94.0682C217.049 93.1843 220.379 91.9974 221.634 89.9612L221.632 89.9604Z" fill="#FA9700"/>
<path d="M187.248 79.0624C189.759 79.0333 192.037 80.2047 193.547 81.364C194.828 82.3739 195.286 83.4922 195.308 84.6494C191.713 82.9971 187.43 79.8405 187.247 79.0632L187.248 79.0624Z" fill="#FEB8AC"/>
<path d="M198.265 72.7016C198.215 74.1513 200.243 75.4673 202.252 76.3384C204.001 77.0775 205.938 77.3419 207.943 77.3546C205.081 75.2795 199.613 72.8063 198.267 72.7007L198.265 72.7016Z" fill="#FEB8AC"/>
<path d="M219.274 91.1904C224.616 88.1058 216.438 82.2294 212.423 79.4503C208.407 76.6721 201.416 76.3672 197.508 78.6239C193.599 80.8805 194.127 84.9168 198.939 87.2355C203.751 89.5542 213.931 94.2751 219.274 91.1904Z" fill="#FFF3DB"/>
<path d="M198.429 78.1646C202.44 76.4281 208.704 76.8784 212.421 79.4502C214.426 80.8368 217.468 82.9976 219.346 85.1966C214.616 83.5618 209.633 84.2624 207.189 83.1771C204.796 82.1148 200.332 79.359 198.427 78.1637L198.429 78.1646Z" fill="#FA9700"/>
<path d="M196.711 79.1565C198.78 80.2573 203.554 82.8335 205.394 84.2149C207.274 85.6261 206.06 88.5031 208.892 91.2341C205.083 90.1496 201.342 88.3924 198.939 87.2355C194.483 85.0891 193.705 81.473 196.712 79.1573L196.711 79.1565Z" fill="#FA9700"/>
<path d="M204.729 86.2389C204.01 86.6541 202.673 86.5303 201.681 85.9578C201.554 85.8844 201.555 85.7648 201.684 85.6904C201.813 85.6161 202.02 85.6153 202.147 85.6887C202.856 86.098 203.828 86.2281 204.271 85.9724C204.713 85.7167 204.487 85.1563 203.778 84.7471C203.651 84.6737 203.652 84.5542 203.781 84.4798C203.909 84.4054 204.117 84.4047 204.244 84.4781C205.235 85.0507 205.448 85.8237 204.731 86.2381L204.729 86.2389Z" fill="#593A42"/>
<path d="M211.264 82.4657C210.547 82.8801 209.208 82.7571 208.216 82.1846C208.089 82.1112 208.09 81.9916 208.219 81.9172C208.348 81.8429 208.555 81.8421 208.682 81.9156C209.391 82.3248 210.363 82.4549 210.806 82.1992C211.249 81.9436 211.022 81.3832 210.313 80.9739C210.186 80.9005 210.187 80.781 210.316 80.7066C210.445 80.6322 210.652 80.6315 210.779 80.7049C211.771 81.2775 211.984 82.0505 211.266 82.4649L211.264 82.4657Z" fill="#593A42"/>
<path d="M218.587 87.9053C219.673 88.5323 219.432 89.688 218.052 90.485C216.671 91.2821 214.668 91.4223 213.582 90.7953C212.496 90.1682 212.736 89.0134 214.119 88.2146C215.503 87.4159 217.501 87.2782 218.587 87.9053Z" fill="#593A42"/>
<path d="M213.6 88.907C213.205 89.2903 213.176 89.7537 213.487 90.1536C213.704 90.4342 214.426 90.1925 214.21 89.9143C214.017 89.6676 214.081 89.3718 214.319 89.1402C214.592 88.8735 213.876 88.6403 213.601 88.9062L213.6 88.907Z" fill="#936170"/>
<path d="M214.009 90.268C213.826 90.3293 213.723 90.4874 213.849 90.5949C213.911 90.6478 213.967 90.7015 214.03 90.7544C214.156 90.8611 214.383 90.9117 214.594 90.8429C214.776 90.7824 214.881 90.6226 214.753 90.5168C214.69 90.4639 214.633 90.4094 214.572 90.3573C214.445 90.2506 214.218 90.2 214.008 90.2688L214.009 90.268Z" fill="#936170"/>
<path d="M226.643 99.1967C224.481 97.3466 216.178 89.5503 226.05 90.4425C230.412 90.8251 234.534 92.2024 238.138 93.4827C241.232 94.569 244.209 95.8068 247.108 97.0739L233.991 104.647C231.413 102.886 228.899 101.097 226.643 99.1967Z" fill="#FFF3DB"/>
<path d="M273.364 41.9578C273.508 41.9457 275.505 42.5777 276.726 42.9701L275.21 44.6917L273.859 43.9112C273.859 43.9112 273.157 41.9752 273.364 41.9578Z" fill="#FEB8AC"/>
<path d="M270.248 45.2436C269.958 44.8005 270.651 41.3875 271.899 40.8698C273.147 40.3522 277.46 42.1389 277.46 42.1389L276.729 42.9701C275.507 42.5769 273.511 41.9457 273.367 41.9579C273.16 41.9752 273.862 43.9112 273.862 43.9112C273.862 43.9112 274.207 46.2911 274.028 46.4968C273.848 46.7025 270.541 45.6868 270.251 45.2436L270.248 45.2436Z" fill="#352328"/>
<path d="M276.972 36.5829C276.706 36.5333 274.475 37.3791 274.475 37.3791C274.475 37.3791 273.435 37.8096 273.229 37.7589C273.022 37.7082 273.189 36.4307 273.986 35.9853C276.52 35.4596 283.391 36.337 289.805 42.2041L288.266 42.0976C282.353 37.3288 276.973 36.5821 276.973 36.5821L276.972 36.5829Z" fill="#352328"/>
<path d="M274.477 37.3782C274.477 37.3782 276.706 36.5315 276.973 36.582C276.973 36.582 282.353 37.3287 288.266 42.0975L279.048 41.4578L274.477 37.3782Z" fill="#FEB8AC"/>
<path d="M272.376 52.2388C270.875 50.8828 275.209 47.3177 275.209 47.3177C272.573 41.9791 279.503 39.7172 286.481 40.81C293.459 41.9029 318.825 55.6676 318.825 55.6676L303.266 64.6509L284.953 50.4354C277.485 54.6121 273.876 53.5949 272.376 52.2388Z" fill="#593A42"/>
<path d="M311.963 59.6294L303.266 64.6507L284.954 50.4352C284.954 50.4352 286.198 49.8703 287.58 48.9487C287.58 48.9487 305.686 56.9142 311.963 59.6294Z" fill="#352328"/>
<path d="M279.297 45.1409C280.64 45.9164 282.609 46.037 283.693 45.4113C284.777 44.7855 284.568 43.6488 283.224 42.8733C281.881 42.0978 279.912 41.9771 278.829 42.6029C277.745 43.2287 277.954 44.3654 279.297 45.1409Z" fill="#352328"/>
<path d="M280.458 44.4707C280.879 44.7141 281.455 44.7775 281.743 44.6113C282.031 44.445 281.923 44.1133 281.5 43.8691C281.077 43.6249 280.502 43.5623 280.214 43.7285C279.926 43.8948 280.035 44.2265 280.458 44.4707Z" fill="#191113"/>
<path d="M276.983 46.3166C277.405 46.56 277.979 46.6227 278.267 46.4564C278.555 46.2901 278.447 45.9584 278.025 45.7151C277.604 45.4717 277.028 45.4082 276.74 45.5745C276.452 45.7407 276.56 46.0724 276.983 46.3166Z" fill="#191113"/>
<path d="M271.877 52.2331C272.729 52.7248 274.3 52.6161 275.384 51.9903C276.468 51.3645 276.656 50.4572 275.805 49.9655C274.953 49.4738 273.381 49.5825 272.297 50.2083C271.214 50.8341 271.024 51.7405 271.877 52.2331Z" fill="#191113"/>
<path d="M273.148 50.0258C273.669 49.847 274.299 49.8331 274.844 49.9739C275.225 50.0722 274.897 50.3988 274.52 50.3014C274.184 50.2146 273.781 50.2426 273.468 50.3509C273.107 50.4751 272.787 50.15 273.151 50.0258L273.148 50.0258Z" fill="#593A42"/>
<path d="M274.998 50.2117C275.081 50.1292 275.297 50.0819 275.442 50.1403C275.514 50.1683 275.588 50.1946 275.66 50.2225C275.804 50.2809 275.874 50.3828 275.778 50.4778C275.695 50.5603 275.479 50.6076 275.334 50.5492C275.264 50.5204 275.188 50.4949 275.116 50.4669C274.972 50.4085 274.902 50.3066 274.997 50.2108L274.998 50.2117Z" fill="#593A42"/>
<path d="M282.857 48.5766C282.857 48.5766 286.638 47.7999 287.511 49.0262C288.385 50.2526 282.123 50.3302 282.123 50.3302C282.123 50.3302 282.836 49.7041 282.859 48.5775L282.857 48.5766Z" fill="#FEB8AC"/>
<path d="M285.718 49.4429C284.726 49.4283 283.687 49.5035 282.733 49.6763C282.533 49.7127 282.453 49.5312 282.653 49.4948C283.627 49.3185 284.705 49.2407 285.72 49.2553C285.928 49.2587 285.928 49.4455 285.718 49.4429Z" fill="#FC8686"/>
<path d="M282.465 47.4946C283.135 48.2443 283.16 49.0321 282.682 49.8292C282.032 50.9159 280.655 51.5344 278.954 52.0578C278.769 52.115 278.608 51.952 278.794 51.8957C280.309 51.4302 281.5 50.9178 282.223 49.9936C282.839 49.2076 282.862 48.3508 282.181 47.5894C282.085 47.4827 282.368 47.3887 282.463 47.4954L282.465 47.4946Z" fill="#352328"/>
<path d="M258.504 60.1333C258.528 60.5616 258.577 60.9824 258.684 61.3938C254.871 58.7178 253.727 56.3043 254.271 55.9885C254.95 55.5967 258.119 56.6561 259.987 57.3384C258.871 58.181 258.459 58.9961 258.506 60.1325L258.504 60.1333Z" fill="#FA9700"/>
<path d="M258.504 60.1334C258.458 58.997 258.87 58.1827 259.986 57.3393C260.803 57.6377 261.373 57.8647 261.373 57.8647L259.972 62.2426C259.512 61.9587 259.084 61.6747 258.683 61.3947C258.577 60.9824 258.527 60.5625 258.503 60.1342L258.504 60.1334Z" fill="#FF740C"/>
<path d="M272.591 53.7889C272.946 53.9636 273.303 54.1466 273.661 54.3396L266.078 55.1485C266.078 55.1485 265.722 54.8509 265.243 54.4159C266.358 54.074 267.749 53.9078 268.864 53.7759C270.085 53.6519 271.367 53.6605 272.591 53.7905L272.591 53.7889Z" fill="#FF740C"/>
<path d="M262.83 51.0475C263.39 50.7241 267.801 51.4345 272.592 53.7898C271.369 53.6597 270.086 53.6511 268.865 53.7751C267.752 53.9079 266.36 54.0732 265.245 54.4152C264.067 53.3476 262.136 51.4477 262.831 51.0466L262.83 51.0475Z" fill="#FA9700"/>
<path d="M255.412 56.6486C255.587 56.5027 260.438 58.1404 260.498 58.4574C260.558 58.7743 260.071 61.0733 259.691 60.9875C259.309 60.9009 255.065 56.9363 255.413 56.6477L255.412 56.6486Z" fill="#FEB8AC"/>
<path d="M263.971 51.7066C263.719 51.808 266.555 54.6088 267.104 54.6433C267.653 54.6778 271.635 54.3968 271.487 54.1773C271.337 53.9571 264.47 51.5064 263.97 51.7074L263.971 51.7066Z" fill="#FEB8AC"/>
<path d="M284.5 75.4848C284.5 75.4848 266.919 68.7395 261.857 64.42C256.795 60.1005 260.887 56.9623 262.702 55.9146C264.516 54.8669 269.952 52.5042 277.432 55.4275C284.914 58.35 296.597 68.5009 296.597 68.5009L284.499 75.4857L284.5 75.4848Z" fill="#FFF3DB"/>
<path d="M262.982 55.7593C265.032 54.6567 270.301 52.6425 277.432 55.4276C284.913 58.3501 296.597 68.501 296.597 68.501L296.238 68.7082C289.436 61.4843 276.818 54.7607 262.982 55.7593Z" fill="#FFF9EE"/>
<path d="M269.386 59.037C266.73 58.4207 263.993 56.2206 263.454 56.5314C262.916 56.8422 266.728 58.4215 267.794 59.956C268.621 61.1419 263.057 62.4748 260.492 63.0188C257.687 59.4275 261.088 56.8464 262.7 55.9157C264.312 54.9849 268.698 53.0553 274.831 54.5945C274.001 55.94 271.55 59.5397 269.386 59.037Z" fill="#FA9700"/>
<path d="M266.55 67.4459C268.728 68.1487 271.121 68.6547 273.621 69.0299C278.63 69.7863 283.756 70.2093 288.26 71.7404C288.73 71.8964 289.343 72.0934 289.972 72.3261L284.5 75.4851C284.5 75.4851 273.659 71.3245 266.55 67.4459Z" fill="#FA9700"/>
<path d="M285.416 62.2197C284.766 60.7766 283.888 59.3942 282.673 58.1375C289.389 62.2409 296.597 68.5011 296.597 68.5011L291.125 71.6601C290.724 71.2963 290.381 70.943 290.111 70.6717C287.459 68.0728 286.725 65.1124 285.416 62.2197Z" fill="#FA9700"/>
<path d="M262.981 55.7586C264.773 54.7948 269.026 53.1363 274.831 54.5945C274.558 55.0397 274.104 55.7305 273.544 56.4382C270.162 55.7656 266.614 55.4962 262.98 55.7594L262.981 55.7586Z" fill="#FF9E10"/>
<path d="M296.597 68.5011L296.238 68.7083C293.233 65.518 289.095 62.4255 284.219 60.0531C283.775 59.3905 283.266 58.749 282.674 58.1384C289.391 62.2418 296.598 68.502 296.598 68.502L296.597 68.5011Z" fill="#FF9E10"/>
<path d="M268.94 57.8555C269.028 57.8045 269.029 57.7231 268.942 57.6728C268.456 57.3923 268.302 57.0076 268.605 56.833C268.907 56.6584 269.573 56.7473 270.059 57.0278C270.146 57.0781 270.287 57.0776 270.376 57.0266C270.464 56.9757 270.465 56.8943 270.378 56.844C269.699 56.4521 268.782 56.3675 268.29 56.6515C267.798 56.9356 267.945 57.4647 268.624 57.8566C268.711 57.9069 268.852 57.9064 268.94 57.8555Z" fill="#593A42"/>
<path d="M264.655 60.3293C264.743 60.2784 264.744 60.197 264.657 60.1467C264.171 59.8662 264.017 59.4815 264.32 59.3069C264.622 59.1323 265.288 59.2212 265.774 59.5017C265.861 59.552 266.002 59.5515 266.091 59.5005C266.179 59.4496 266.18 59.3682 266.093 59.3179C265.414 58.926 264.497 58.8413 264.005 59.1254C263.513 59.4095 263.66 59.9386 264.339 60.3305C264.426 60.3808 264.567 60.3803 264.655 60.3293Z" fill="#593A42"/>
<path d="M273.532 58.8507C274.058 59.968 273.483 60.9862 271.993 61.7671C270.541 62.5296 268.194 62.8055 266.571 62.0924C266.408 62.0199 266.568 61.8566 266.734 61.9291C268.367 62.6463 270.524 62.2872 271.941 61.5431C273.27 60.8451 273.678 59.8739 273.218 58.8984C273.163 58.7815 273.479 58.733 273.534 58.8499L273.532 58.8507Z" fill="#593A42"/>
<path d="M272.05 61.5826C271.45 61.2394 270.919 60.8528 270.223 60.568C270.054 60.4989 270.216 60.3348 270.386 60.4047C271.108 60.6993 271.657 61.0933 272.282 61.4489C272.429 61.5338 272.199 61.6667 272.05 61.5826Z" fill="#593A42"/>
<path d="M267.384 61.0492C268.235 61.5409 269.807 61.4322 270.891 60.8065C271.975 60.1807 272.164 59.2742 271.311 58.7817C270.458 58.2891 268.888 58.3986 267.804 59.0244C266.72 59.6502 266.531 60.5567 267.384 61.0492Z" fill="#593A42"/>
<path d="M268.744 58.7884C269.265 58.6096 269.895 58.5957 270.44 58.7365C270.821 58.8347 270.493 59.1614 270.116 59.064C269.78 58.9772 269.377 59.0052 269.064 59.1135C268.702 59.2385 268.383 58.9125 268.747 58.7883L268.744 58.7884Z" fill="#936170"/>
<path d="M270.596 58.9732C270.679 58.8907 270.895 58.8435 271.04 58.9019C271.111 58.9298 271.187 58.9553 271.257 58.9841C271.402 59.0425 271.471 59.1444 271.377 59.2402C271.295 59.3235 271.078 59.37 270.933 59.3116C270.863 59.2828 270.788 59.2581 270.715 59.2293C270.571 59.1726 270.501 59.069 270.597 58.9741L270.596 58.9732Z" fill="#936170"/>
<path d="M235.274 55.9312C236.304 55.5231 232.121 52.2025 233.639 50.6644C235.158 49.1263 237.966 46.6403 235.434 46.7159C232.904 46.7908 227.093 49.5334 227.68 51.3993C228.269 53.2651 232.86 56.8898 235.276 55.932L235.274 55.9312Z" fill="#352328"/>
<path d="M227.677 51.3978C227.089 49.5327 232.902 46.7901 235.431 46.7144C236.05 46.6956 236.347 46.8323 236.425 47.0678C236.027 47.2809 235.654 47.5115 235.306 47.7684C232.863 49.4561 230.827 52.7653 231.482 55.1506C229.674 54.1202 228.014 52.47 227.677 51.3978Z" fill="#593A42"/>
<path d="M239.911 63.7815C241.952 63.6786 244.348 63.0298 244.348 63.0298C249.488 66.2115 257.303 69.1394 264.547 71.4451C247.169 70.2549 239.912 63.7823 239.912 63.7823L239.911 63.7815Z" fill="#EFDCBD"/>
<path d="M230.312 64.2624C226.763 61.1886 223.934 57.7609 230.601 55.1131C237.268 52.4653 242.366 55.9751 242.199 56.0712C242.033 56.1673 254.324 56.4089 253.042 59.2986C251.761 62.1883 244.346 63.029 244.346 63.029C244.346 63.029 241.951 63.6778 239.909 63.7807C239.909 63.7807 247.166 70.2532 264.544 71.4435C274.17 74.506 282.788 76.4704 282.788 76.4704L263.24 87.7563C249.813 80.5807 233.972 67.4313 230.313 64.2607L230.312 64.2624Z" fill="#FFF3DB"/>
<path d="M237.812 62.2691C237.812 62.2691 234.53 63.3222 235.447 64.4413C236.365 65.5612 240.36 63.0635 240.36 63.0635C240.36 63.0635 239.168 62.9632 237.812 62.2691Z" fill="#FEB8AC"/>
<path d="M252.053 56.6903C252.976 57.2233 252.771 58.2045 251.596 58.8829C250.421 59.5614 248.722 59.6796 247.799 59.1467C246.876 58.6137 247.08 57.6325 248.255 56.9541C249.431 56.2756 251.132 56.1582 252.053 56.6903Z" fill="#593A42"/>
<path d="M238.81 59.1338C239.421 58.7813 239.238 58.1244 238.396 57.6385C238.289 57.5766 238.112 57.5764 238.002 57.6399C237.892 57.7034 237.891 57.8047 238 57.8674C238.603 58.2155 238.795 58.6922 238.418 58.9094C238.042 59.1267 237.216 59.0159 236.613 58.6678C236.506 58.6059 236.329 58.6057 236.219 58.6692C236.109 58.7327 236.108 58.834 236.217 58.8967C237.059 59.3826 238.196 59.4881 238.807 59.1355L238.81 59.1338Z" fill="#593A42"/>
<path d="M242.404 57.0584C243.015 56.7058 242.833 56.0489 241.991 55.563C241.884 55.5011 241.707 55.501 241.597 55.5645C241.487 55.6279 241.486 55.7292 241.594 55.7919C242.197 56.1401 242.389 56.6168 242.013 56.834C241.637 57.0512 240.811 56.9405 240.208 56.5924C240.101 56.5305 239.924 56.5303 239.814 56.5938C239.704 56.6573 239.703 56.7586 239.811 56.8213C240.653 57.3072 241.791 57.4127 242.402 57.0601L242.404 57.0584Z" fill="#593A42"/>
<path d="M236.843 63.8517C237.466 63.4277 238.224 63.0496 239.042 62.7536C239.21 62.6932 239.357 62.8454 239.19 62.9058C238.393 63.1927 237.664 63.5606 237.056 63.9746C236.928 64.0614 236.717 63.9377 236.843 63.8517Z" fill="#FC8686"/>
<path d="M247.815 57.5419C247.479 57.8678 247.455 58.2614 247.717 58.6016C247.903 58.8392 248.515 58.6344 248.332 58.3985C248.167 58.1882 248.222 57.9373 248.425 57.7406C248.658 57.5139 248.047 57.3152 247.815 57.5419Z" fill="#936170"/>
<path d="M248.163 58.6987C248.007 58.7508 247.919 58.8856 248.028 58.9765C248.082 59.0211 248.129 59.0683 248.182 59.1121C248.288 59.2022 248.482 59.2455 248.661 59.1867C248.815 59.1355 248.905 58.9999 248.796 58.909C248.742 58.8643 248.695 58.8172 248.643 58.7734C248.536 58.6833 248.342 58.64 248.164 58.6979L248.163 58.6987Z" fill="#936170"/>
<path d="M229.914 59.1647C230.489 58.5258 224.369 56.4261 224.449 54.6657C224.525 52.9054 224.643 50.3097 222.463 51.0698C220.283 51.8299 217.395 55.8222 219.453 57.2909C221.51 58.7595 228.565 60.6649 229.915 59.1655L229.914 59.1647Z" fill="#352328"/>
<path d="M258.948 74.1695C256.076 72.9172 256.115 70.7809 257.596 69.0794C259.902 69.9228 262.253 70.7154 264.546 71.4459C266.65 72.1157 268.708 72.7325 270.636 73.2892C267.981 75.0183 261.906 75.4945 258.948 74.1712L258.948 74.1695Z" fill="#593A42"/>
<path d="M235.874 66.4835C237.351 67.8563 238.366 69.2307 237.826 70.4316C234.276 67.6267 231.573 65.3543 230.314 64.263C229.68 63.7132 229.068 63.1526 228.531 62.5866C232.13 62.9787 233.588 64.2685 235.874 66.4835Z" fill="#593A42"/>
<path d="M271.532 82.9721L263.243 87.7579C260.345 86.2084 257.332 84.3805 254.355 82.4345C255.543 81.9304 256.973 81.4976 258.511 81.101C263.653 79.8136 268.773 80.4052 271.535 82.9721L271.532 82.9721Z" fill="#593A42"/>
<path d="M237.058 61.3843C237.642 62.2697 238.891 62.745 240.431 62.9827C241.769 63.1887 243.055 62.9565 244.313 62.6838C244.496 62.6441 244.57 62.814 244.389 62.8528C242.934 63.1695 241.612 63.347 240.092 63.1126C238.543 62.8733 237.339 62.2982 236.766 61.4311C236.696 61.3259 236.992 61.2808 237.06 61.3852L237.058 61.3843Z" fill="#593A42"/>
<path d="M257.596 69.0795L257.599 69.0811C258.15 69.2825 258.702 69.4806 259.256 69.6753C259.359 69.7115 259.462 69.7476 259.566 69.7838C259.998 69.935 260.431 70.0845 260.862 70.2315C261.02 70.2857 261.177 70.3383 261.333 70.3917C261.726 70.5248 262.12 70.6553 262.513 70.7851C262.664 70.836 262.818 70.8861 262.97 70.9353C263.497 71.1078 264.023 71.2794 264.544 71.4452C261.678 71.2489 259.087 70.908 256.757 70.4765C256.922 69.9968 257.207 69.5234 257.593 69.0795L257.596 69.0795Z" fill="#352328"/>
<path d="M219.452 57.2899C217.394 55.8213 220.284 51.8298 222.462 51.0689C223.088 50.8507 223.524 50.9098 223.826 51.1461C223.174 52.5258 222.794 53.9544 223.059 55.3623C223.531 57.6918 226.229 58.7364 229.5 59.4501C227.498 60.3698 221.35 58.6446 219.452 57.2899Z" fill="#593A42"/>
<path d="M267.359 85.382C267.359 85.382 252.73 75.8181 240.754 74.1507C228.778 72.4849 226.135 77.1538 227.138 80.1422C227.138 80.1422 226.069 83.0527 223.091 84.6883C223.091 84.6883 229.729 86.9722 233.187 82.258C233.187 82.258 238.546 79.5884 245.401 82.4268C252.255 85.2661 252.756 93.8131 252.756 93.8131L267.359 85.382Z" fill="#FF740C"/>
<path d="M227.082 80.2835C231.709 79.7403 233.187 82.2579 233.187 82.2579C229.731 86.9729 223.091 84.6883 223.091 84.6883C225.682 83.2666 226.826 80.8814 227.08 80.2827L227.082 80.2835Z" fill="#FFF3DB"/>
<path d="M250.377 81.62C257.998 83.0991 262.442 85.307 264.799 86.8601L252.754 93.8139C252.754 93.8139 252.255 85.2661 245.4 82.4277C238.546 79.5884 233.186 82.2589 233.186 82.2589C233.186 82.2589 237.513 79.1239 250.375 81.6208L250.377 81.62Z" fill="#ED4714"/>
<path d="M222.426 85.3873C223.648 85.4094 224.669 85.0296 224.706 84.538C224.743 84.048 223.781 83.6331 222.559 83.611C221.337 83.5888 220.318 83.9695 220.281 84.4595C220.244 84.9494 221.205 85.3643 222.427 85.3865L222.426 85.3873Z" fill="#593A42"/>
<path d="M230.28 75.9406C230.037 75.6568 230.915 73.9225 231.789 73.7774C232.663 73.6322 239.001 76.1903 239.341 77.2368C239.677 78.2833 232.786 76.4952 232.159 76.4577C231.531 76.4193 233.129 77.2196 232.638 77.3019C232.148 77.3851 230.831 76.5829 230.28 75.9406Z" fill="#593A42"/>
<path d="M229.101 79.4675C229.505 79.701 230.043 79.7705 230.3 79.6217C230.558 79.473 230.437 79.163 230.033 78.9295C229.629 78.696 229.092 78.6266 228.834 78.7753C228.576 78.924 228.695 79.2332 229.101 79.4675Z" fill="#593A42"/>
<path d="M229.789 81.2584C231.044 81.5353 232.234 82.2806 231.265 83.0513C231.104 83.1789 230.732 83.0599 230.895 82.9314C231.686 82.3017 230.697 81.7225 229.678 81.4971C229.426 81.4416 229.535 81.2021 229.789 81.2584Z" fill="#593A42"/>
<path d="M221.308 83.8563C221.517 83.8215 221.72 83.7984 221.938 83.7993C222.491 83.8006 222.443 84.2931 221.894 84.2917C221.752 84.2914 221.618 84.316 221.482 84.3381C220.952 84.4263 220.781 83.9446 221.309 83.8572L221.308 83.8563Z" fill="#936170"/>
<path d="M222.753 83.7548C222.921 83.7434 223.061 83.7471 223.226 83.7656C223.454 83.7921 223.567 83.9544 223.503 84.0726C223.427 84.2107 223.195 84.2622 222.968 84.2364C222.953 84.2365 222.94 84.2357 222.926 84.2357C222.696 84.2515 222.472 84.1892 222.422 84.0483C222.38 83.9272 222.523 83.7706 222.753 83.7548Z" fill="#936170"/>
<path d="M210.288 97.5643C210.288 97.5643 209.019 96.6848 208.216 95.7064C208.951 95.7245 209.69 95.7052 210.417 95.6369L210.886 96.9569L210.287 97.5652L210.288 97.5643Z" fill="#EFDCBD"/>
<path d="M208.218 95.7056C207.976 95.4126 207.778 95.1111 207.669 94.821C207.63 94.7165 207.61 94.6095 207.602 94.4999C207.349 94.3854 207.115 94.2302 207.064 94.0619C207.02 93.9566 207.07 93.8385 207.287 93.8385C207.456 93.8388 207.577 93.9222 207.673 93.9941C207.674 93.9899 207.677 93.9866 207.676 93.9824C207.44 93.7326 207.066 93.4799 207.049 93.1894C207.051 93.064 207.166 92.9797 207.387 93.0237C207.655 93.0751 207.83 93.2728 207.967 93.4002C207.952 93.2583 207.843 92.5231 208.013 92.3639C208.168 92.223 208.318 92.3329 208.391 92.4456C208.471 92.5632 208.486 92.6943 208.483 92.8246C209.24 92.132 210.327 91.6581 211.127 91.8611C212.773 92.2768 210.032 94.5608 210.032 94.5608L210.414 95.6354C209.687 95.7036 208.946 95.7221 208.213 95.7048L208.218 95.7056Z" fill="#FFF3DB"/>
<path d="M204.998 98.4387C204.998 98.4387 204.119 96.9401 204.803 96.8388C205.486 96.7383 205.943 97.8931 205.943 97.8931C205.943 97.8931 206.492 96.0796 207.292 96.2436C208.092 96.4083 207.439 97.617 207.439 97.617C207.439 97.617 210.993 96.25 211.977 95.9757C212.96 95.7015 214.88 95.5716 214.143 96.6818L215.747 98.0542C215.747 98.0542 218.715 95.7536 220.881 96.5585C223.047 97.3625 223.419 98.4197 223.076 98.6177C222.733 98.8157 221.967 98.6707 221.967 98.6707C221.967 98.6707 223.684 99.4515 223.2 99.929C222.879 100.246 221.697 99.8531 221.697 99.8531C221.697 99.8531 223.199 101.023 222.447 101.426C222.047 101.641 220.825 101.094 220.825 101.094C220.825 101.094 221.157 102.514 220.259 102.689C219.363 102.865 216.976 102.579 216.976 102.579C216.976 102.579 221.612 103.669 222.881 104.599C224.15 105.53 223.592 105.902 222.568 105.906C222.568 105.906 225.368 107.225 226.5 108.968L215.986 115.039C215.986 115.039 206.07 101.586 204.892 100.112C204.892 100.112 201.939 98.9148 202.481 98.3724C203.015 97.8382 204.995 98.4371 204.995 98.4371L204.998 98.4387Z" fill="#FFF3DB"/>
<path d="M223.242 109.075C222.203 108.335 218.837 106.766 221.542 106.082C220.459 105.737 217.889 105.002 219.989 104.39C218.984 104.231 215.204 103.686 215.293 102.895C215.351 102.332 217.049 102.489 218.463 102.713C217.678 102.665 216.976 102.58 216.976 102.58C216.976 102.58 221.612 103.671 222.881 104.601C224.149 105.532 223.592 105.904 222.568 105.907C222.568 105.907 225.368 107.226 226.5 108.97L221.279 111.984C220.882 111.651 220.602 111.281 220.523 110.874C220.332 109.969 221.592 109.01 223.242 109.074L223.242 109.075Z" fill="#EFDCBD"/>
<path d="M210.847 92.2439C211.317 92.7444 209.635 94.4268 209.635 94.4268L210.28 97.1052C210.28 97.1052 208.34 94.7586 208.233 94.4776C208.125 94.1965 210.254 91.6175 210.844 92.2439L210.847 92.2439Z" fill="#FEB8AC"/>
<path d="M199.322 99.4309C199.45 99.3665 199.639 99.3832 199.792 99.4001C199.788 99.3976 199.787 99.3935 199.782 99.3893C199.317 99.2931 198.744 99.2478 198.4 99.0374C198.26 98.9432 198.25 98.837 198.467 98.7856C198.73 98.7215 199.09 98.8024 199.338 98.8455C199.165 98.7457 198.245 98.2393 198.192 98.0568C198.149 97.8934 198.391 97.9174 198.574 97.9732C198.769 98.0306 198.931 98.1222 199.078 98.2205C198.862 97.4176 199.149 96.6511 199.989 96.4977C201.717 96.1818 202.236 98.9229 202.236 98.9229L205.615 100.381L205.854 101.062C205.854 101.062 202.528 100.771 200.73 100.017C200.581 99.9543 200.444 99.8817 200.314 99.8033C199.991 99.8136 199.636 99.7875 199.404 99.6821C199.252 99.6196 199.155 99.5137 199.319 99.4309L199.322 99.4309Z" fill="#FFF3DB"/>
<path d="M200.21 96.8905C201.138 97.0839 201.777 98.9753 201.777 98.9753L205.346 100.541C205.346 100.541 201.171 99.7131 200.769 99.5443C200.366 99.3756 199.043 96.6465 200.21 96.8888L200.21 96.8905Z" fill="#FEB8AC"/>
<path d="M211.414 99.0116C211.463 99.1302 211.428 99.2382 211.312 99.3316C210.982 99.5977 210.172 99.6131 208.901 99.372C208.839 99.3598 208.807 99.3225 208.829 99.2867C208.848 99.251 208.916 99.2316 208.977 99.2439C210.427 99.5175 210.944 99.3986 211.123 99.2543C211.199 99.1934 211.22 99.1253 211.187 99.0457C211.091 98.8169 210.574 98.5614 210.235 98.4647C210.188 98.4507 210.161 98.4201 210.174 98.3893C210.186 98.3594 210.232 98.3377 210.287 98.3358C210.658 98.3278 211.042 98.3538 211.463 98.4145C211.533 98.4251 211.606 98.4356 211.681 98.4469C212.058 98.5045 212.486 98.571 212.839 98.5108C212.962 98.4896 213.045 98.4511 213.086 98.3962C213.134 98.3304 213.121 98.2441 213.044 98.158C212.891 97.9726 212.553 97.8742 212.224 97.7783L212.153 97.757C212.107 97.7439 212.081 97.7141 212.092 97.6833C212.102 97.6542 212.144 97.6316 212.197 97.629C212.285 97.6245 212.373 97.62 212.462 97.6164C212.875 97.5974 213.302 97.5784 213.66 97.4792C213.83 97.4287 213.923 97.3719 213.932 97.3121C213.946 97.2232 213.786 97.1009 213.499 96.9783C213.447 96.9569 213.436 96.9138 213.475 96.8829C213.511 96.8521 213.588 96.846 213.641 96.8682C213.897 96.976 214.196 97.1435 214.169 97.3221C214.152 97.4325 214.017 97.5252 213.766 97.6008C213.41 97.6992 213.014 97.7264 212.626 97.7444C212.881 97.8282 213.123 97.9328 213.259 98.095C213.367 98.2158 213.384 98.3444 213.306 98.4477C213.278 98.4851 213.239 98.5176 213.19 98.5461C213.117 98.5878 213.022 98.6197 212.908 98.6392C212.49 98.7088 212.03 98.6383 211.622 98.5767C211.549 98.5645 211.477 98.5548 211.409 98.5442C211.165 98.5086 210.935 98.4862 210.714 98.4754C211.022 98.6129 211.342 98.8126 211.423 99.0099L211.414 99.0116Z" fill="#EFDCBD"/>
<path d="M211.837 101.14C211.802 101.109 211.819 101.068 211.874 101.047C211.928 101.026 212.002 101.035 212.036 101.067C212.204 101.219 212.445 101.347 212.775 101.457C213.413 101.663 213.673 101.639 213.777 101.584C213.978 101.468 213.633 101.195 213.521 101.114C213.361 100.99 213.165 100.901 212.938 100.852C212.888 100.844 212.849 100.836 212.822 100.831C212.765 100.817 212.735 100.78 212.754 100.746C212.775 100.711 212.838 100.693 212.898 100.702C212.943 100.71 212.984 100.717 213.027 100.727C213.28 100.769 213.678 100.802 213.864 100.745C213.913 100.73 213.941 100.711 213.953 100.684C213.967 100.653 213.957 100.627 213.925 100.601C213.754 100.473 213.072 100.42 212.762 100.421C212.696 100.422 212.644 100.392 212.645 100.354C212.645 100.316 212.697 100.286 212.763 100.285C212.775 100.285 213.81 100.291 214.111 100.517C214.19 100.576 214.213 100.644 214.181 100.716C214.153 100.78 214.08 100.832 213.972 100.865C213.848 100.901 213.688 100.913 213.524 100.91C213.589 100.947 213.65 100.986 213.707 101.031C214.094 101.314 214.178 101.545 213.939 101.682C213.577 101.875 212.885 101.651 212.657 101.576C212.295 101.453 212.026 101.312 211.838 101.141L211.837 101.14Z" fill="#EFDCBD"/>
<path d="M215.864 107.207C215.923 107.193 215.992 107.209 216.018 107.244C216.124 107.395 216.542 107.586 216.943 107.67C217.18 107.718 217.381 107.724 217.505 107.685C217.656 107.635 217.73 107.559 217.737 107.454C217.748 107.218 217.386 106.898 217.068 106.779C217.014 106.759 217 106.718 217.033 106.687C217.067 106.655 217.14 106.645 217.193 106.664C217.762 106.861 218.382 106.986 218.492 106.928C218.515 106.914 218.524 106.854 218.41 106.717C218.04 106.286 217.23 105.818 216.481 105.603C216.431 105.589 216.406 105.556 216.422 105.525C216.437 105.494 216.487 105.473 216.543 105.475C217.012 105.492 217.815 105.454 217.86 105.211C217.876 105.137 217.837 105.073 217.742 105.016C217.426 104.824 216.58 104.768 216.216 104.781C216.151 104.784 216.095 104.755 216.093 104.719C216.089 104.681 216.14 104.649 216.204 104.646C216.574 104.632 217.52 104.682 217.912 104.922C218.054 105.009 218.116 105.112 218.092 105.225C218.038 105.515 217.423 105.592 216.967 105.61C217.64 105.865 218.283 106.268 218.618 106.657C218.672 106.721 218.837 106.918 218.654 107.023C218.652 107.025 218.649 107.027 218.646 107.028C218.462 107.126 218.043 107.056 217.677 106.964C217.848 107.114 217.974 107.294 217.967 107.458C217.961 107.57 217.894 107.664 217.768 107.736C217.723 107.762 217.673 107.785 217.615 107.805C217.424 107.864 217.163 107.861 216.859 107.799C216.387 107.702 215.929 107.487 215.796 107.299C215.77 107.265 215.802 107.225 215.861 107.21L215.864 107.207Z" fill="#EFDCBD"/>
<path d="M209.945 105.274C209.95 105.236 210.003 105.207 210.07 105.208C210.133 105.21 210.184 105.241 210.179 105.279C210.15 105.594 210.434 105.952 210.954 106.005C211.141 106.016 211.298 105.984 211.395 105.918C211.499 105.847 211.526 105.74 211.468 105.625C211.454 105.595 211.476 105.564 211.521 105.547C211.569 105.531 211.628 105.535 211.665 105.556C212.068 105.789 212.506 105.953 212.636 105.923C212.702 105.904 212.72 105.883 212.725 105.868C212.773 105.758 212.497 105.549 212.38 105.46L212.349 105.435C212.309 105.405 212.318 105.364 212.373 105.34C212.424 105.318 212.498 105.324 212.537 105.353L212.568 105.378C212.729 105.501 213.029 105.729 212.954 105.901C212.942 105.929 212.916 105.964 212.859 105.997C212.827 106.015 212.784 106.034 212.729 106.049C212.461 106.111 212.022 105.926 211.731 105.78C211.72 105.866 211.666 105.943 211.575 106.006C211.423 106.108 211.195 106.156 210.918 106.139C210.24 106.07 209.911 105.641 209.945 105.274Z" fill="#EFDCBD"/>
<path d="M209.463 102.785C209.438 102.832 209.396 102.873 209.34 102.905C209.283 102.938 209.211 102.963 209.126 102.979C208.996 103.005 208.857 102.996 208.718 102.953C208.392 102.853 208.112 102.578 208.042 102.425C208.025 102.389 208.061 102.351 208.125 102.341C208.188 102.331 208.253 102.352 208.268 102.389C208.32 102.499 208.558 102.75 208.831 102.833C208.913 102.858 208.986 102.864 209.055 102.85C209.153 102.83 209.213 102.797 209.239 102.746C209.324 102.581 209.066 102.28 208.896 102.158C208.856 102.13 208.864 102.089 208.916 102.063C208.967 102.038 209.04 102.044 209.081 102.073C209.252 102.197 209.585 102.548 209.463 102.783L209.463 102.785Z" fill="#EFDCBD"/>
<path d="M207.868 102.163C207.868 102.163 207.858 102.169 207.854 102.171C207.732 102.241 207.559 102.265 207.373 102.234C206.878 102.141 206.663 101.492 206.666 101.261C206.668 101.224 206.72 101.194 206.784 101.193C206.849 101.193 206.901 101.223 206.902 101.261C206.899 101.508 207.133 102.046 207.443 102.105C207.548 102.122 207.636 102.11 207.695 102.071C207.788 102.013 207.81 101.906 207.748 101.81C207.726 101.775 207.756 101.736 207.817 101.722C207.877 101.709 207.945 101.726 207.967 101.761C208.062 101.904 208.022 102.066 207.868 102.163Z" fill="#EFDCBD"/>
<path d="M221.295 107.382C221.36 107.375 221.418 107.401 221.43 107.437C221.503 107.717 222.151 108.521 222.777 108.463C222.862 108.453 222.914 108.428 222.946 108.383C223.012 108.284 222.948 108.114 222.841 107.999C222.811 107.971 222.786 107.948 222.764 107.929C222.73 107.899 222.739 107.858 222.791 107.836C222.843 107.814 222.914 107.82 222.954 107.848C222.982 107.868 223.011 107.894 223.039 107.922C223.07 107.95 223.102 107.982 223.14 108.016C223.391 108.252 223.913 108.746 224.214 108.714C224.361 108.695 224.4 108.65 224.416 108.617C224.543 108.369 223.834 107.775 223.587 107.632C223.542 107.606 223.542 107.563 223.588 107.536C223.635 107.509 223.709 107.509 223.755 107.535C223.947 107.646 224.816 108.313 224.642 108.654C224.623 108.689 224.589 108.73 224.527 108.766C224.465 108.802 224.381 108.831 224.258 108.847C223.916 108.883 223.566 108.648 223.209 108.333C223.204 108.367 223.192 108.4 223.17 108.431C223.11 108.521 222.99 108.579 222.82 108.596C221.99 108.673 221.288 107.772 221.204 107.459C221.194 107.422 221.237 107.387 221.302 107.381L221.295 107.382Z" fill="#FFF3DB"/>
<path d="M214.042 109.706L214.027 109.679C214.005 109.643 214.04 109.605 214.102 109.592C214.163 109.58 214.23 109.599 214.25 109.634L214.266 109.661C214.453 109.993 214.847 110.685 215.479 110.768C215.568 110.777 215.681 110.781 215.725 110.748C215.807 110.683 215.721 110.473 215.523 110.259C215.492 110.225 215.515 110.184 215.571 110.166C215.629 110.148 215.7 110.16 215.731 110.193C215.829 110.298 216.133 110.657 215.914 110.827C215.904 110.834 215.892 110.843 215.88 110.849C215.783 110.905 215.632 110.923 215.427 110.9C214.664 110.8 214.242 110.061 214.042 109.704L214.042 109.706Z" fill="#EFDCBD"/>
<path d="M216.234 109.942C216.29 109.923 216.362 109.933 216.395 109.965C216.92 110.473 217.457 110.805 217.703 110.77C217.824 110.753 217.912 110.62 217.944 110.403C217.951 110.367 218.007 110.337 218.073 110.341C218.138 110.343 218.186 110.376 218.179 110.413C218.146 110.625 218.067 110.766 217.935 110.843C217.883 110.873 217.824 110.892 217.755 110.902C217.228 110.975 216.486 110.32 216.191 110.034C216.159 110.002 216.176 109.961 216.233 109.941L216.234 109.942Z" fill="#EFDCBD"/>
<path d="M216.871 99.5487C217.855 99.8913 219.401 99.4639 220.323 98.5938C221.244 97.7237 221.191 96.7393 220.207 96.3966C219.223 96.054 217.677 96.4814 216.756 97.3515C215.834 98.2216 215.887 99.2061 216.871 99.5487Z" fill="#593A42"/>
<path d="M218.311 96.6468C218.794 96.4765 219.46 96.45 219.939 96.6292C220.202 96.7279 219.899 96.9507 219.639 96.8537C219.355 96.7484 218.883 96.7717 218.6 96.8724C218.333 96.9672 218.039 96.7441 218.309 96.6476L218.311 96.6468Z" fill="#936170"/>
<path d="M220.286 96.7832C220.453 96.8258 220.574 96.9009 220.632 97.0012C220.731 97.1718 220.275 97.2781 220.177 97.1058C220.158 97.0735 220.147 97.0569 220.094 97.043C219.807 96.9693 220.001 96.7087 220.286 96.7832Z" fill="#936170"/>
<path d="M214.521 98.2255C214.791 98.3814 215.158 98.4208 215.342 98.3147C215.525 98.2086 215.456 97.9963 215.187 97.8412C214.918 97.6861 214.549 97.6451 214.366 97.7512C214.182 97.8573 214.251 98.0696 214.521 98.2255Z" fill="#593A42"/>
<path d="M212.391 99.4553C212.661 99.6112 213.028 99.6506 213.211 99.5445C213.395 99.4384 213.326 99.2261 213.057 99.071C212.788 98.9159 212.419 98.8749 212.235 98.981C212.052 99.0871 212.121 99.2994 212.391 99.4553Z" fill="#593A42"/>
</g>
</g>
<g clip-path="url(#clip2_131_5947)">
<path d="M126.796 -56.3698C123.646 -56.3698 121.112 -54.9065 116.043 -51.98L10.6393 8.87486C10.5375 8.93363 10.4367 8.99181 10.337 9.04942L9.08379 5.28991L3.8069 3.58268L3.03088 4.8243V14.9125L3.04423 14.9038C3.03869 14.9632 3.03593 15.0229 3.03593 15.083C3.03593 16.9013 5.57038 18.3645 10.6393 21.2911L82.8277 62.9691C87.8965 65.8956 90.431 67.3588 93.5804 67.3589C96.7298 67.3588 99.2643 65.8956 104.333 62.9691L209.737 2.11424C214.741 -0.774658 217.275 -2.23768 217.339 -4.02389L217.366 -4.02226V-14.2656L213.175 -13.024L208.25 -11.1604L137.548 -51.98C132.48 -54.9065 129.945 -56.3698 126.796 -56.3698Z" fill="#E44449"/>
<rect width="108.188" height="146.542" rx="6.20811" transform="matrix(0.866025 0.5 -0.866026 0.5 126.796 -68.515)" fill="#F15156"/>
<g clip-path="url(#clip3_131_5947)">
<path d="M74.9122 15.7908C71.1952 13.9322 67.0897 10.7865 67.6 10.4077C68.0842 10.0506 73.5574 10.689 75.9641 10.9907C75.1116 11.7618 74.8897 12.7215 74.7592 13.6103C74.6663 14.3471 74.7043 15.0792 74.9108 15.7899L74.9122 15.7908Z" fill="#FA9700"/>
<path d="M74.7607 13.611C74.8912 12.7222 75.1117 11.7616 75.9656 10.9914C76.6535 11.0777 77.0929 11.1359 77.0929 11.1359L77.2095 16.7727C76.496 16.5329 75.7132 16.1912 74.9137 15.7914C74.7087 15.0798 74.6692 14.3486 74.7621 13.6118L74.7607 13.611Z" fill="#F27006"/>
<path d="M101.948 21.4455C100.695 23.4808 97.3628 24.6686 94.0342 25.5524L87.3192 21.1792L96.1015 15.3514C97.4866 15.5863 98.8829 15.8427 100.281 16.1166C102.019 17.7167 103.067 19.5851 101.946 21.4464L101.948 21.4455Z" fill="#F27006"/>
<path d="M101.948 21.4455C103.067 19.5851 102.019 17.7167 100.282 16.1158C116.832 19.3547 133.637 24.9713 133.637 24.9713L112.172 37.3643L94.0356 25.5533C97.3642 24.6694 100.695 23.4825 101.949 21.4463L101.948 21.4455Z" fill="#FA9700"/>
<path d="M67.564 10.5472C70.075 10.5181 72.3529 11.6896 73.863 12.8489C75.1433 13.8587 75.6013 14.977 75.6231 16.1343C72.029 14.482 67.7453 11.3253 67.5625 10.5481L67.564 10.5472Z" fill="#FEB8AC"/>
<path d="M99.5891 22.6755C104.932 19.5909 96.7536 13.7145 92.739 10.9354C88.7229 8.15722 81.7318 7.85228 77.8231 10.109C73.9144 12.3657 74.4426 16.4019 79.2546 18.7206C84.0666 21.0393 94.2463 25.7602 99.5891 22.6755Z" fill="#FFF3DB"/>
<path d="M78.7444 9.64968C82.7552 7.91317 89.0199 8.36355 92.7363 10.9353C94.7415 12.3219 97.7837 14.4827 99.6621 16.6818C94.9317 15.0469 89.9486 15.7475 87.5044 14.6622C85.1117 13.5999 80.6482 10.8441 78.743 9.64885L78.7444 9.64968Z" fill="#FA9700"/>
<path d="M77.0265 10.6417C79.0952 11.7425 83.8699 14.3187 85.7098 15.7001C87.5896 17.1113 86.3761 19.9883 89.2079 22.7194C85.399 21.6349 81.6579 19.8776 79.2547 18.7208C74.7989 16.5743 74.0202 12.9582 77.0279 10.6425L77.0265 10.6417Z" fill="#FA9700"/>
<path d="M85.0448 17.7239C84.3255 18.1391 82.9881 18.0153 81.9964 17.4428C81.8692 17.3693 81.8706 17.2498 81.9993 17.1754C82.1281 17.1011 82.3352 17.1003 82.4624 17.1737C83.1712 17.5829 84.1433 17.7131 84.5861 17.4574C85.0289 17.2017 84.8021 16.6413 84.0933 16.2321C83.9661 16.1587 83.9674 16.0391 84.0962 15.9648C84.225 15.8904 84.4321 15.8897 84.5593 15.9631C85.551 16.5356 85.764 17.3086 85.0462 17.723L85.0448 17.7239Z" fill="#593A42"/>
<path d="M91.58 13.9507C90.8623 14.3651 89.5234 14.2421 88.5317 13.6696C88.4045 13.5961 88.4058 13.4766 88.5346 13.4022C88.6634 13.3279 88.8705 13.3271 88.9977 13.4005C89.7064 13.8097 90.6785 13.9399 91.1214 13.6842C91.5642 13.4285 91.3374 12.8681 90.6286 12.4589C90.5014 12.3855 90.5027 12.2659 90.6315 12.1916C90.7603 12.1172 90.9674 12.1165 91.0946 12.1899C92.0863 12.7625 92.2993 13.5354 91.5815 13.9499L91.58 13.9507Z" fill="#593A42"/>
<path d="M98.9031 19.3902C99.9892 20.0172 99.7479 21.173 98.3673 21.97C96.9868 22.7671 94.9835 22.9072 93.8975 22.2802C92.8115 21.6532 93.0514 20.4983 94.4348 19.6996C95.8183 18.9009 97.8171 18.7632 98.9031 19.3902Z" fill="#593A42"/>
<path d="M93.9154 20.3922C93.5201 20.7755 93.492 21.2389 93.8026 21.6387C94.0195 21.9194 94.7411 21.6777 94.5256 21.3995C94.3327 21.1528 94.3964 20.857 94.6347 20.6253C94.908 20.3587 94.1915 20.1255 93.9169 20.3913L93.9154 20.3922Z" fill="#936170"/>
<path d="M94.3248 21.7531C94.1415 21.8144 94.0391 21.9725 94.1644 22.08C94.2271 22.1329 94.2826 22.1866 94.3453 22.2395C94.4721 22.3462 94.6988 22.3968 94.9095 22.328C95.0913 22.2675 95.1966 22.1078 95.0684 22.0019C95.0057 21.949 94.9487 21.8945 94.8875 21.8424C94.7607 21.7357 94.534 21.6851 94.3233 21.7539L94.3248 21.7531Z" fill="#936170"/>
<path d="M106.959 30.6817C104.796 28.8316 96.4939 21.0353 106.366 21.9275C110.728 22.3101 114.85 23.6874 118.454 24.9677C121.548 26.054 124.525 27.2918 127.423 28.5589L114.306 36.1319C111.729 34.3713 109.215 32.5822 106.959 30.6817Z" fill="#FFF3DB"/>
<path d="M110.628 -4.25251C107.078 -7.32633 104.25 -10.754 110.917 -13.4018C117.583 -16.0496 122.681 -12.5397 122.515 -12.4437C122.348 -12.3476 134.639 -12.106 133.358 -9.21628C132.077 -6.32659 124.662 -5.48593 124.662 -5.48593C124.662 -5.48593 122.266 -4.83709 120.225 -4.73417C120.225 -4.73417 127.482 1.73835 144.86 2.92861C154.485 5.99106 163.103 7.95549 163.103 7.95549L143.555 19.2414C130.128 12.0658 114.288 -1.08361 110.628 -4.25417L110.628 -4.25251Z" fill="#FFF3DB"/>
<path d="M151.848 14.4573L143.558 19.2431C140.661 17.6937 137.648 15.8657 134.671 13.9197C135.859 13.4156 137.288 12.9828 138.827 12.5862C143.969 11.2989 149.089 11.8904 151.85 14.4573L151.848 14.4573Z" fill="#593A42"/>
<path d="M147.674 16.8669C147.674 16.8669 133.045 7.30295 121.069 5.63553C109.093 3.96978 106.451 8.63863 107.453 11.6271C107.453 11.6271 106.385 14.5376 103.406 16.1732C103.406 16.1732 110.045 18.457 113.503 13.7429C113.503 13.7429 118.861 11.0732 125.717 13.9117C132.571 16.751 133.071 25.2979 133.071 25.2979L147.674 16.8669Z" fill="#FF740C"/>
<path d="M107.397 11.7685C112.025 11.2252 113.503 13.7429 113.503 13.7429C110.046 18.4579 103.406 16.1733 103.406 16.1733C105.997 14.7516 107.142 12.3663 107.396 11.7677L107.397 11.7685Z" fill="#FFF3DB"/>
<path d="M130.693 13.1047C138.314 14.5838 142.757 16.7918 145.114 18.3448L133.07 25.2987C133.07 25.2987 132.571 16.7509 125.715 13.9124C118.861 11.0732 113.502 13.7436 113.502 13.7436C113.502 13.7436 117.828 10.6087 130.691 13.1056L130.693 13.1047Z" fill="#ED4714"/>
<path d="M102.741 16.8722C103.964 16.8943 104.984 16.5144 105.021 16.0228C105.058 15.5329 104.097 15.1179 102.875 15.0958C101.652 15.0737 100.633 15.4544 100.596 15.9443C100.559 16.4343 101.521 16.8492 102.743 16.8713L102.741 16.8722Z" fill="#593A42"/>
<path d="M110.104 12.7432C111.36 13.02 112.549 13.7654 111.58 14.536C111.419 14.6637 111.048 14.5446 111.211 14.4162C112.001 13.7865 111.012 13.2073 109.994 12.9818C109.741 12.9263 109.85 12.6868 110.104 12.7432Z" fill="#593A42"/>
<path d="M101.624 15.3411C101.833 15.3063 102.036 15.2831 102.254 15.284C102.806 15.2853 102.759 15.7778 102.21 15.7765C102.068 15.7762 101.934 15.8007 101.798 15.8228C101.268 15.9111 101.096 15.4294 101.625 15.3419L101.624 15.3411Z" fill="#936170"/>
<path d="M103.069 15.2396C103.237 15.2282 103.376 15.2318 103.542 15.2503C103.77 15.2769 103.883 15.4392 103.819 15.5573C103.742 15.6954 103.51 15.7469 103.283 15.7212C103.269 15.7212 103.256 15.7204 103.242 15.7205C103.011 15.7363 102.788 15.674 102.737 15.533C102.696 15.412 102.838 15.2554 103.069 15.2396Z" fill="#936170"/>
<path d="M90.6036 29.0495C90.6036 29.0495 89.3349 28.1699 88.5317 27.1915C89.2663 27.2096 90.0056 27.1903 90.7325 27.122L91.2013 28.442L90.6022 29.0503L90.6036 29.0495Z" fill="#EFDCBD"/>
<path d="M88.5331 27.1908C88.2919 26.8977 88.0938 26.5963 87.9848 26.3061C87.9457 26.2016 87.9253 26.0946 87.9179 25.985C87.6646 25.8705 87.4305 25.7153 87.3791 25.547C87.3357 25.4417 87.3859 25.3236 87.603 25.3237C87.7713 25.3239 87.8926 25.4073 87.9881 25.4792C87.9896 25.475 87.9925 25.4717 87.9911 25.4675C87.7552 25.2177 87.3812 24.965 87.3642 24.6745C87.367 24.5491 87.4816 24.4648 87.7025 24.5088C87.9709 24.5602 88.1456 24.758 88.2822 24.8853C88.268 24.7434 88.1581 24.0082 88.3281 23.849C88.4835 23.7081 88.6333 23.818 88.7068 23.9307C88.7861 24.0483 88.8019 24.1794 88.799 24.3097C89.5558 23.6171 90.6423 23.1432 91.4425 23.3462C93.0888 23.7619 90.3474 26.0459 90.3474 26.0459L90.7297 27.1205C90.0028 27.1887 89.262 27.2072 88.5288 27.1899L88.5331 27.1908Z" fill="#FFF3DB"/>
<path d="M85.3139 29.9239C85.3139 29.9239 84.4344 28.4252 85.1186 28.3239C85.8013 28.2235 86.2589 29.3783 86.2589 29.3783C86.2589 29.3783 86.8079 27.5648 87.6071 27.7287C88.4077 27.8935 87.7545 29.1022 87.7545 29.1022C87.7545 29.1022 91.3084 27.7352 92.2921 27.4609C93.2758 27.1867 95.1955 27.0568 94.4586 28.167L96.0628 29.5393C96.0628 29.5393 99.0301 27.2387 101.197 28.0436C103.362 28.8477 103.735 29.9049 103.392 30.1029C103.049 30.3009 102.283 30.1559 102.283 30.1559C102.283 30.1559 104 30.9367 103.515 31.4142C103.194 31.7317 102.012 31.3383 102.012 31.3383C102.012 31.3383 103.515 32.5084 102.763 32.9113C102.362 33.1262 101.14 32.5793 101.14 32.5793C101.14 32.5793 101.473 33.9995 100.575 34.1746C99.6784 34.3506 97.2916 34.0637 97.2916 34.0637C97.2916 34.0637 101.927 35.1543 103.197 36.0845C104.465 37.0156 103.907 37.387 102.884 37.3908C102.884 37.3908 105.683 38.7097 106.816 40.4532L96.3011 46.524C96.3011 46.524 86.3853 33.0707 85.2079 31.5972C85.2079 31.5972 82.2544 30.4 82.7967 29.8575C83.3303 29.3234 85.311 29.9222 85.311 29.9222L85.3139 29.9239Z" fill="#FFF3DB"/>
<path d="M103.558 40.5606C102.519 39.8205 99.1524 38.2512 101.858 37.5672C100.774 37.2225 98.204 36.4871 100.304 35.8751C99.2995 35.716 95.5193 35.1711 95.6084 34.3804C95.6664 33.8173 97.3644 33.9738 98.7783 34.1986C97.9937 34.15 97.2915 34.0654 97.2915 34.0654C97.2915 34.0654 101.927 35.156 103.197 36.0862C104.465 37.0172 103.907 37.3887 102.883 37.3925C102.883 37.3925 105.683 38.7114 106.816 40.4549L101.595 43.4694C101.197 43.1363 100.918 42.7662 100.839 42.3597C100.647 41.4538 101.908 40.4952 103.558 40.559L103.558 40.5606Z" fill="#EFDCBD"/>
<path d="M91.1623 23.729C91.6328 24.2296 89.9506 25.912 89.9506 25.912L90.5958 28.5904C90.5958 28.5904 88.6557 26.2438 88.5481 25.9627C88.4404 25.6817 90.5695 23.1027 91.1594 23.729L91.1623 23.729Z" fill="#FEB8AC"/>
<path d="M79.6373 30.9159C79.766 30.8515 79.9542 30.8683 80.1078 30.8851C80.1036 30.8827 80.1022 30.8785 80.0979 30.8744C79.633 30.7781 79.0598 30.7329 78.7155 30.5224C78.5756 30.4283 78.5653 30.3221 78.783 30.2706C79.0454 30.2066 79.4055 30.2874 79.6538 30.3305C79.4809 30.2307 78.5603 29.7243 78.5077 29.5419C78.4649 29.3785 78.7062 29.4025 78.8897 29.4583C79.0846 29.5157 79.2461 29.6072 79.3931 29.7055C79.1776 28.9026 79.4649 28.1361 80.305 27.9828C82.0326 27.6668 82.5519 30.408 82.5519 30.408L85.931 31.866L86.1695 32.5467C86.1695 32.5467 82.8437 32.2558 81.0459 31.5019C80.897 31.4393 80.7597 31.3668 80.6297 31.2884C80.3061 31.2987 79.9512 31.2726 79.7194 31.1672C79.5676 31.1046 79.471 30.9987 79.6344 30.9159L79.6373 30.9159Z" fill="#FFF3DB"/>
<path d="M80.5249 28.3756C81.4532 28.569 82.0925 30.4604 82.0925 30.4604L85.6618 32.0265C85.6618 32.0265 81.4863 31.1982 81.084 31.0294C80.6818 30.8607 79.3585 28.1316 80.525 28.3739L80.5249 28.3756Z" fill="#FEB8AC"/>
<path d="M91.7297 30.4964C91.7788 30.615 91.7431 30.723 91.627 30.8165C91.2977 31.0825 90.4879 31.0979 89.2165 30.8568C89.1548 30.8446 89.1221 30.8073 89.1441 30.7715C89.1632 30.7358 89.231 30.7164 89.2927 30.7287C90.742 31.0023 91.2596 30.8834 91.438 30.7391C91.5149 30.6782 91.5358 30.6101 91.5021 30.5305C91.4069 30.3017 90.8891 30.0462 90.5508 29.9495C90.5035 29.9355 90.4765 29.9049 90.4898 29.8741C90.5016 29.8442 90.5479 29.8225 90.6025 29.8206C90.9736 29.8126 91.3573 29.8386 91.778 29.8993C91.8483 29.9099 91.9215 29.9204 91.9962 29.9317C92.3737 29.9893 92.8015 30.0558 93.1545 29.9956C93.277 29.9744 93.3608 29.9359 93.4016 29.881C93.4498 29.8152 93.4364 29.7289 93.3597 29.6428C93.2064 29.4574 92.8681 29.359 92.5399 29.2631L92.4682 29.2418C92.4223 29.2287 92.3968 29.1989 92.4072 29.1681C92.4176 29.139 92.4595 29.1164 92.5127 29.1138C92.6005 29.1093 92.6883 29.1048 92.7775 29.1012C93.1904 29.0822 93.6177 29.0632 93.9754 28.964C94.1456 28.9135 94.2383 28.8567 94.2475 28.7969C94.2615 28.708 94.1017 28.5857 93.814 28.4631C93.7625 28.4417 93.7515 28.3986 93.7906 28.3677C93.8269 28.3369 93.9032 28.3308 93.9562 28.353C94.2124 28.4608 94.5111 28.6283 94.4847 28.8069C94.4677 28.9173 94.3329 29.01 94.0819 29.0856C93.7256 29.1841 93.3299 29.2112 92.9414 29.2293C93.1965 29.313 93.4384 29.4176 93.5746 29.5798C93.6826 29.7006 93.6999 29.8292 93.6211 29.9325C93.5934 29.9699 93.5542 30.0024 93.505 30.0309C93.4326 30.0726 93.3374 30.1045 93.2236 30.124C92.8058 30.1936 92.345 30.1231 91.9372 30.0615C91.864 30.0493 91.7922 30.0396 91.7248 30.029C91.4807 29.9934 91.2509 29.971 91.0295 29.9602C91.3372 30.0977 91.6571 30.2975 91.7384 30.4947L91.7297 30.4964Z" fill="#EFDCBD"/>
<path d="M92.152 32.6254C92.1178 32.594 92.1341 32.5532 92.189 32.5314C92.2438 32.5113 92.3171 32.5202 92.3513 32.5516C92.5193 32.7037 92.7609 32.8315 93.0904 32.9416C93.7281 33.1477 93.9886 33.1243 94.0927 33.0691C94.2939 32.953 93.9489 32.6803 93.8362 32.5985C93.6765 32.4745 93.4804 32.3864 93.2538 32.3374C93.2035 32.3285 93.1648 32.3211 93.1375 32.3154C93.0802 32.3024 93.0504 32.2651 93.0694 32.231C93.09 32.1961 93.1534 32.1776 93.2137 32.1873C93.2582 32.1946 93.2998 32.2019 93.3429 32.2117C93.5955 32.254 93.9935 32.2866 94.1796 32.2303C94.2286 32.2151 94.2562 32.1959 94.268 32.1693C94.2827 32.1377 94.2729 32.112 94.2401 32.0864C94.069 31.9575 93.3879 31.9052 93.0773 31.9064C93.0112 31.9066 92.9597 31.8769 92.9601 31.8387C92.9606 31.8005 93.0126 31.7704 93.0788 31.7702C93.0903 31.7701 94.1256 31.7763 94.4265 32.0019C94.505 32.0605 94.5287 32.1294 94.4963 32.2009C94.4682 32.2649 94.3958 32.3167 94.2876 32.3494C94.1635 32.3864 94.0037 32.3978 93.8398 32.3951C93.9042 32.4322 93.9656 32.471 94.0226 32.5156C94.4092 32.799 94.4929 33.0295 94.2542 33.1673C93.8926 33.3596 93.2005 33.1355 92.9726 33.0607C92.6102 32.9384 92.3414 32.7965 92.1534 32.6262L92.152 32.6254Z" fill="#EFDCBD"/>
<path d="M96.1797 38.6919C96.2389 38.6776 96.3077 38.6939 96.3332 38.7287C96.4394 38.8802 96.8572 39.0713 97.2589 39.1545C97.4957 39.2027 97.6969 39.2086 97.821 39.1699C97.9711 39.1196 98.0453 39.0437 98.0522 38.9391C98.0634 38.7033 97.7016 38.3825 97.3837 38.2641C97.3293 38.2444 97.3153 38.2029 97.3488 38.1721C97.3822 38.1396 97.4556 38.1302 97.5086 38.1491C98.0774 38.3454 98.6972 38.471 98.8071 38.4125C98.8303 38.3991 98.8396 38.3393 98.726 38.2019C98.3554 37.7707 97.5452 37.3029 96.7969 37.0881C96.7467 37.0742 96.7212 37.0411 96.7374 37.0103C96.7521 36.9787 96.8027 36.9578 96.8587 36.9601C97.3273 36.9766 98.1301 36.9388 98.1759 36.6962C98.1911 36.6214 98.153 36.5577 98.0573 36.5007C97.7416 36.3084 96.8952 36.2526 96.5313 36.2664C96.4665 36.2691 96.4108 36.2402 96.4083 36.2037C96.4044 36.1664 96.4551 36.1338 96.5198 36.1311C96.8895 36.1173 97.8352 36.167 98.228 36.4071C98.3694 36.4938 98.4315 36.5965 98.4073 36.7095C98.3538 36.9994 97.7389 37.0772 97.2829 37.0947C97.956 37.3496 98.5987 37.7524 98.9338 38.1414C98.9877 38.2059 99.1523 38.4029 98.97 38.5082C98.9671 38.5099 98.9642 38.5115 98.9613 38.5132C98.7776 38.611 98.3585 38.5411 97.9928 38.4487C98.1637 38.5991 98.2898 38.7788 98.2822 38.9432C98.2767 39.0553 98.2095 39.1486 98.0836 39.2213C98.0387 39.2472 97.9882 39.2698 97.9304 39.2899C97.74 39.3487 97.4783 39.3463 97.1741 39.2844C96.7021 39.1873 96.2443 38.9714 96.1111 38.7843C96.0856 38.7495 96.1177 38.7095 96.1768 38.6952L96.1797 38.6919Z" fill="#EFDCBD"/>
<path d="M90.2606 36.7584C90.2653 36.721 90.3188 36.6918 90.3849 36.6932C90.4482 36.6946 90.4996 36.726 90.4949 36.7634C90.4656 37.079 90.7492 37.4366 91.2692 37.4895C91.456 37.5004 91.6131 37.4691 91.7102 37.4032C91.8145 37.3314 91.8415 37.225 91.7839 37.1099C91.7698 37.08 91.7917 37.0492 91.8365 37.0316C91.8841 37.0157 91.943 37.0196 91.9802 37.0411C92.3831 37.2737 92.8214 37.4382 92.9511 37.4078C93.0175 37.3893 93.035 37.3676 93.0409 37.3527C93.0881 37.2429 92.8128 37.0339 92.6959 36.9446L92.6645 36.9198C92.6246 36.8901 92.6337 36.8486 92.6886 36.8251C92.7392 36.8025 92.8139 36.8089 92.8524 36.8378L92.8837 36.8626C93.0449 36.9857 93.3444 37.2138 93.2692 37.3859C93.2573 37.4142 93.2311 37.4491 93.1746 37.4817C93.1428 37.5001 93.0995 37.5185 93.0446 37.5337C92.7765 37.5961 92.3371 37.4109 92.0467 37.265C92.0357 37.3505 91.9817 37.4279 91.8904 37.4905C91.7383 37.5932 91.5106 37.6405 91.2332 37.6241C90.5553 37.5552 90.2263 37.1263 90.2606 36.7584Z" fill="#EFDCBD"/>
<path d="M89.7786 34.2695C89.7537 34.3169 89.7115 34.3577 89.6551 34.3903C89.5987 34.4229 89.5265 34.4481 89.4415 34.4641C89.3118 34.4895 89.1724 34.4809 89.0334 34.4374C88.708 34.3381 88.4278 34.0627 88.3575 33.9102C88.3407 33.8737 88.377 33.8362 88.4404 33.826C88.5038 33.8158 88.5683 33.8364 88.5837 33.8737C88.6357 33.9839 88.8731 34.2346 89.1468 34.3174C89.2285 34.3429 89.3018 34.3484 89.371 34.3349C89.469 34.3146 89.5283 34.282 89.5547 34.2304C89.6399 34.0657 89.3815 33.7645 89.2117 33.6431C89.1718 33.615 89.1794 33.5743 89.2315 33.5475C89.2821 33.5232 89.3554 33.5288 89.3967 33.5577C89.5679 33.6816 89.9006 34.0324 89.7787 34.2678L89.7786 34.2695Z" fill="#EFDCBD"/>
<path d="M88.1836 33.6476C88.1836 33.6476 88.1735 33.6535 88.1691 33.656C88.0476 33.7262 87.8748 33.75 87.6882 33.7192C87.1931 33.6255 86.9787 32.977 86.9813 32.7462C86.9831 32.7089 87.0352 32.6788 87.0999 32.6777C87.1646 32.6783 87.2161 32.708 87.2171 32.7454C87.2144 32.9928 87.4486 33.5308 87.7586 33.5894C87.8634 33.6064 87.9512 33.5953 88.0106 33.5561C88.1033 33.4976 88.126 33.3905 88.0638 33.2944C88.0412 33.2596 88.0718 33.2205 88.1324 33.207C88.1929 33.1935 88.2603 33.2106 88.2829 33.2454C88.3777 33.3887 88.3371 33.5508 88.1836 33.6476Z" fill="#EFDCBD"/>
<path d="M101.611 38.8664C101.675 38.8604 101.734 38.8859 101.745 38.9224C101.818 39.2019 102.467 40.0057 103.093 39.9478C103.178 39.9384 103.23 39.9133 103.262 39.8683C103.328 39.7693 103.263 39.5985 103.157 39.4835C103.127 39.4562 103.101 39.433 103.08 39.414C103.046 39.3843 103.055 39.3427 103.107 39.3209C103.159 39.2992 103.229 39.3047 103.269 39.3328C103.298 39.3526 103.326 39.3791 103.355 39.4072C103.386 39.4353 103.417 39.4667 103.456 39.5006C103.706 39.7372 104.229 40.2309 104.529 40.1991C104.676 40.1803 104.716 40.1345 104.732 40.1021C104.858 39.8542 104.15 39.2598 103.903 39.1171C103.857 39.0907 103.858 39.0475 103.904 39.0208C103.95 38.9941 104.025 38.9938 104.071 39.0202C104.262 39.1307 105.132 39.7984 104.957 40.1386C104.938 40.1744 104.905 40.2152 104.842 40.2511C104.78 40.287 104.696 40.3156 104.574 40.3318C104.231 40.3679 103.882 40.1326 103.524 39.8175C103.519 39.8516 103.508 39.8849 103.486 39.9156C103.426 40.0064 103.306 40.0641 103.136 40.0813C102.305 40.1582 101.603 39.2567 101.519 38.944C101.509 38.9067 101.553 38.8716 101.618 38.8656L101.611 38.8664Z" fill="#FFF3DB"/>
<path d="M94.3579 41.191L94.3423 41.1636C94.3212 41.128 94.3561 41.0897 94.4181 41.077C94.4786 41.0652 94.546 41.084 94.5657 41.1188L94.5812 41.1461C94.7688 41.4784 95.1625 42.1702 95.7943 42.2526C95.8833 42.2622 95.9969 42.2659 96.0404 42.2326C96.1231 42.1683 96.0362 41.9578 95.8387 41.7435C95.8074 41.7104 95.8309 41.6688 95.8872 41.6511C95.9449 41.6327 96.0152 41.6449 96.0465 41.6779C96.1445 41.783 96.4483 42.1422 96.2294 42.3116C96.2192 42.3191 96.2076 42.3274 96.196 42.3341C96.0991 42.3901 95.9479 42.4081 95.7425 42.3847C94.98 42.2854 94.5582 41.5456 94.3579 41.1893L94.3579 41.191Z" fill="#EFDCBD"/>
<path d="M96.5495 41.427C96.6058 41.4077 96.6776 41.4174 96.7103 41.4497C97.2354 41.9584 97.7725 42.2901 98.0187 42.2552C98.1397 42.2382 98.2274 42.105 98.26 41.8882C98.2662 41.8517 98.3226 41.8224 98.3887 41.8255C98.4534 41.8277 98.5019 41.8608 98.4943 41.8981C98.4618 42.11 98.3826 42.2514 98.2509 42.3274C98.1988 42.3575 98.1396 42.3768 98.0705 42.387C97.5434 42.4604 96.8014 41.8047 96.5068 41.5193C96.4741 41.4871 96.4918 41.4455 96.5481 41.4262L96.5495 41.427Z" fill="#EFDCBD"/>
<path d="M97.1865 31.0338C98.1707 31.3764 99.7169 30.949 100.638 30.0789C101.559 29.2088 101.507 28.2243 100.523 27.8817C99.5385 27.5391 97.9923 27.9665 97.0711 28.8366C96.1499 29.7067 96.2024 30.6911 97.1865 31.0338Z" fill="#593A42"/>
<path d="M98.6263 28.132C99.1099 27.9617 99.7759 27.9352 100.254 28.1145C100.518 28.2131 100.215 28.4359 99.9541 28.3389C99.6706 28.2337 99.1987 28.257 98.9157 28.3576C98.6486 28.4524 98.3549 28.2293 98.6248 28.1329L98.6263 28.132Z" fill="#936170"/>
<path d="M100.602 28.2684C100.768 28.3109 100.89 28.386 100.948 28.4863C101.046 28.6569 100.591 28.7632 100.492 28.5909C100.474 28.5586 100.462 28.542 100.409 28.5281C100.123 28.4544 100.317 28.1938 100.602 28.2684Z" fill="#936170"/>
<path d="M94.8369 29.7107C95.1069 29.8667 95.4732 29.906 95.657 29.7999C95.8407 29.6938 95.7712 29.4815 95.5025 29.3264C95.2339 29.1713 94.8648 29.1303 94.681 29.2364C94.4972 29.3425 94.5668 29.5548 94.8369 29.7107Z" fill="#593A42"/>
<path d="M92.7068 30.9406C92.9769 31.0965 93.3432 31.1359 93.527 31.0298C93.7107 30.9237 93.6412 30.7114 93.3725 30.5563C93.1039 30.4012 92.7348 30.3602 92.551 30.4663C92.3672 30.5724 92.4368 30.7847 92.7068 30.9406Z" fill="#593A42"/>
</g>
</g>
<defs>
<clipPath id="clip0_131_5947">
<rect width="194" height="136" fill="white" transform="translate(120)"/>
</clipPath>
<clipPath id="clip1_131_5947">
<rect width="118.748" height="60.3017" rx="9.31217" transform="matrix(0.866025 -0.5 0.866025 0.5 163.766 84.8896)" fill="white"/>
</clipPath>
<clipPath id="clip2_131_5947">
<rect width="220.578" height="62.7332" fill="white" transform="translate(0 13.009)"/>
</clipPath>
<clipPath id="clip3_131_5947">
<rect width="118.748" height="60.3017" rx="9.31217" transform="matrix(0.866025 -0.5 0.866025 0.5 44.0811 16.3746)" fill="white"/>
</clipPath>
</defs>
</svg>
